<svg xmlns="http://www.w3.org/2000/svg" width="64" height="64" viewBox="0 0 64 64">
  <defs>
    <radialGradient id="g" cx="40%" cy="34%" r="72%">
      <stop offset="0%" stop-color="#FFF0B8"/>
      <stop offset="45%" stop-color="#FFC400"/>
      <stop offset="100%" stop-color="#D98A00"/>
    </radialGradient>
    <clipPath id="ball"><circle cx="32" cy="32" r="30"/></clipPath>
  </defs>
  <circle cx="32" cy="32" r="30" fill="url(#g)" stroke="#6b4410" stroke-width="3"/>
  <g clip-path="url(#ball)" fill="#5c3410">
    <polygon points="32,21 40.6,27.2 37.3,37.3 26.7,37.3 23.4,27.2"/>
    <polygon points="32,-3 41,6 32,13 23,6"/>
    <polygon points="61,13 67,26 55,31 49,20"/>
    <polygon points="55,55 43,59 39,47 51,43"/>
    <polygon points="9,55 21,43 33,47 25,59"/>
    <polygon points="3,13 15,20 9,31 -3,26"/>
  </g>
  <g clip-path="url(#ball)" stroke="#5c3410" stroke-width="3" stroke-linecap="round">
    <line x1="32" y1="21" x2="32" y2="5"/>
    <line x1="40.6" y1="27.2" x2="55" y2="17"/>
    <line x1="37.3" y1="37.3" x2="49" y2="49"/>
    <line x1="26.7" y1="37.3" x2="15" y2="49"/>
    <line x1="23.4" y1="27.2" x2="9" y2="17"/>
  </g>
</svg>
